<?xml version="1.0" encoding="UTF-8" standalone="no"?>
<!-- Created with Inkscape (http://www.inkscape.org/) -->

<svg
   width="800"
   height="800"
   viewBox="0 0 211.66667 211.66667"
   version="1.1"
   id="svg1"
   inkscape:version="1.3 (0e150ed6c4, 2023-07-21)"
   xml:space="preserve"
   inkscape:export-filename="new-logo.png"
   inkscape:export-xdpi="96"
   inkscape:export-ydpi="96"
   xmlns:inkscape="http://www.inkscape.org/namespaces/inkscape"
   xmlns:sodipodi="http://sodipodi.sourceforge.net/DTD/sodipodi-0.dtd"
   xmlns="http://www.w3.org/2000/svg"
   xmlns:svg="http://www.w3.org/2000/svg"><sodipodi:namedview
     id="namedview1"
     pagecolor="#ffffff"
     bordercolor="#000000"
     borderopacity="0.25"
     inkscape:showpageshadow="2"
     inkscape:pageopacity="0.0"
     inkscape:pagecheckerboard="0"
     inkscape:deskcolor="#d1d1d1"
     inkscape:document-units="mm"
     inkscape:zoom="0.6406717"
     inkscape:cx="-528.35173"
     inkscape:cy="389.43503"
     inkscape:window-width="3840"
     inkscape:window-height="1009"
     inkscape:window-x="-8"
     inkscape:window-y="-8"
     inkscape:window-maximized="1"
     inkscape:current-layer="layer1" /><defs
     id="defs1"><rect
       x="-870.2583"
       y="775.43909"
       width="162.36162"
       height="24.678967"
       id="rect4" /></defs><g
     inkscape:label="Layer 1"
     inkscape:groupmode="layer"
     id="layer1"><g
       id="g5"
       transform="translate(-2.1166175,-23.451698)"><g
         id="g1"
         transform="translate(240.86397,-3.4366543)"
         style="fill:#000000"><path
           style="fill:#000000;fill-opacity:1"
           d="m -148.39757,145.45831 c 0.0899,-0.14552 0.21603,-0.26458 0.2802,-0.26458 0.0642,0 0.11668,0.11906 0.11668,0.26458 0,0.14552 -0.12609,0.26458 -0.2802,0.26458 -0.15411,0 -0.20662,-0.11906 -0.11668,-0.26458 z m 0.15318,-0.94809 c 0.0127,-0.30823 0.0754,-0.37092 0.15985,-0.15985 0.0764,0.19099 0.067,0.4192 -0.0209,0.50711 -0.0879,0.0879 -0.15045,-0.0683 -0.13896,-0.34726 z m -7.897,-1.96233 c 0,-0.50932 0.0545,-0.71768 0.121,-0.46302 0.0665,0.25466 0.0665,0.67138 0,0.92604 -0.0666,0.25466 -0.121,0.0463 -0.121,-0.46302 z m 3.14219,-0.36244 c -0.21416,-0.25804 -0.27952,-2.75389 -0.22693,-8.6651 l 0.0739,-8.30267 0.0622,8.34761 c 0.0452,6.06748 0.14897,8.43433 0.37974,8.6651 0.17463,0.17463 0.24874,0.3175 0.16469,0.3175 -0.084,0 -0.28817,-0.1631 -0.45361,-0.36244 z m -3.08614,-8.89797 c 0,-4.43839 0.0362,-6.25409 0.0805,-4.0349 0.0443,2.21919 0.0443,5.8506 0,8.06979 -0.0443,2.21919 -0.0805,0.40349 -0.0805,-4.03489 z m 10.82711,-4.8948 c 6.9e-4,-1.4552 0.0451,-2.01676 0.0987,-1.2479 0.0536,0.76886 0.0531,1.95949 -0.001,2.64584 -0.0543,0.68634 -0.0982,0.0573 -0.0975,-1.39794 z m 0.009,-6.74687 c 0,-2.11005 0.0411,-2.97326 0.0913,-1.91823 0.0502,1.05503 0.0502,2.78143 0,3.83646 -0.0502,1.05502 -0.0913,0.19182 -0.0913,-1.91823 z m -10.82405,-18.85154 0.003,-15.14742 2.11667,-0.01603 2.11667,-0.01603 -2.04836,0.09284 -2.04836,0.09284 -0.0716,15.07061 -0.0716,15.07062 z m 10.82405,10.91404 c 0,-2.11005 0.0411,-2.97326 0.0913,-1.91823 0.0502,1.05503 0.0502,2.78143 0,3.83646 -0.0502,1.05502 -0.0913,0.19182 -0.0913,-1.91823 z m -0.006,-6.74688 c 6e-4,-1.60073 0.0442,-2.22146 0.0968,-1.3794 0.0527,0.84206 0.0522,2.15175 -10e-4,2.91042 -0.0533,0.75867 -0.0964,0.0697 -0.0958,-1.53102 z m 27.1035,2.59739 c 0.191,-0.0764 0.4192,-0.067 0.50712,0.0209 0.0879,0.0879 -0.0684,0.15045 -0.34726,0.13896 -0.30823,-0.0127 -0.37092,-0.0754 -0.15986,-0.15985 z m 6.92878,-3.39114 c 0.49365,-0.50932 0.95708,-0.92604 1.02985,-0.92604 0.0728,0 -0.27161,0.41672 -0.76527,0.92604 -0.49365,0.50933 -0.95708,0.92605 -1.02984,0.92605 -0.0728,0 0.2716,-0.41672 0.76526,-0.92605 z m -8.06979,-2.24895 c 0.56839,-0.58209 1.09296,-1.05834 1.16572,-1.05834 0.0728,0 -0.33275,0.47625 -0.90114,1.05834 -0.56839,0.58208 -1.09297,1.05833 -1.16573,1.05833 -0.0728,0 0.33276,-0.47625 0.90115,-1.05833 z m -0.0905,-6.085422 c 0,-0.363802 0.0601,-0.51263 0.13345,-0.330729 0.0734,0.181901 0.0734,0.479557 0,0.661458 -0.0734,0.181901 -0.13345,0.03307 -0.13345,-0.330729 z m 2.94071,-0.529166 c 0,-0.654844 0.0516,-0.922735 0.11466,-0.595313 0.0631,0.327422 0.0631,0.863203 0,1.190625 -0.0631,0.327422 -0.11466,0.05953 -0.11466,-0.595312 z m -22.4801,0.331352 c 1.86386,-0.04555 4.84042,-0.04541 6.61458,2.94e-4 1.77416,0.04571 0.24918,0.08297 -3.38884,0.08281 -3.63802,-1.61e-4 -5.08961,-0.03756 -3.22574,-0.0831 z m 19.5185,-1.014859 c 0.0127,-0.308225 0.0754,-0.37092 0.15986,-0.159853 0.0764,0.190996 0.067,0.419199 -0.0209,0.507118 -0.0879,0.08792 -0.15045,-0.06835 -0.13897,-0.347265 z m 11.90625,-1.058334 c 0.0127,-0.308224 0.0754,-0.370919 0.15986,-0.159852 0.0764,0.190996 0.067,0.419199 -0.0209,0.507118 -0.0879,0.08792 -0.15045,-0.06835 -0.13897,-0.347266 z m 2.91042,0 c 0.0127,-0.308224 0.0754,-0.370919 0.15985,-0.159852 0.0764,0.190996 0.067,0.419199 -0.0209,0.507118 -0.0879,0.08792 -0.15045,-0.06835 -0.13896,-0.347266 z m -14.58721,-5.07118 -0.9118,-0.992188 0.99218,0.911798 c 0.54571,0.501489 0.99219,0.947974 0.99219,0.992188 0,0.202041 -0.22389,0.01171 -1.07257,-0.911798 z m -33.88976,-0.134768 c 0.11057,-0.110502 6.20662,-0.169989 13.54679,-0.132194 l 13.34575,0.06872 -13.54679,0.132195 c -7.45073,0.07271 -13.45632,0.04178 -13.34575,-0.06872 z m 43.13067,-0.658982 c -0.32911,-0.419644 -0.31975,-0.429003 0.0999,-0.0999 0.25466,0.199719 0.46302,0.408078 0.46302,0.463021 0,0.217761 -0.21727,0.0776 -0.56291,-0.363126 z m -1.43811,-1.719792 -0.7771,-0.859896 0.85989,0.777105 c 0.80155,0.724372 0.98151,0.942687 0.77711,0.942687 -0.0455,0 -0.43249,-0.386953 -0.8599,-0.859896 z m -13.67554,-0.373666 c 0.1819,-0.0734 0.47956,-0.0734 0.66146,0 0.1819,0.0734 0.0331,0.133452 -0.33073,0.133452 -0.3638,0 -0.51263,-0.06005 -0.33073,-0.133452 z m 6.87917,-2.910417 c 0.1819,-0.0734 0.47955,-0.0734 0.66145,0 0.18191,0.0734 0.0331,0.133452 -0.33072,0.133452 -0.36381,0 -0.51263,-0.06005 -0.33073,-0.133452 z m -43.21823,-0.45596 c -0.17217,-0.448508 0.0293,-3.743213 0.11108,-1.289443 l 0.0462,1.386659 13.55989,0.07101 13.5599,0.071 -13.5682,0.06369 c -11.36141,0.05333 -13.59108,0.0041 -13.70888,-0.302916 z m 29.33969,0.169721 c 1.13444,-0.04972 2.92038,-0.04941 3.96875,6.73e-4 1.04838,0.05009 0.1202,0.09076 -2.06261,0.09039 -2.18281,-3.7e-4 -3.04057,-0.04135 -1.90614,-0.09107 z m 7.80349,7.18e-4 c 0.91521,-0.05181 2.34396,-0.05139 3.175,9.52e-4 0.83104,0.05234 0.0822,0.09473 -1.66402,0.09421 -1.74625,-5.23e-4 -2.42619,-0.04334 -1.51098,-0.09516 z"
           id="path4"
           sodipodi:nodetypes="sssssssssssscssscssssssssscscccsssscccccccccsssssccssssssssssssssssscssscssssssssssssssssssssssscssssscsssssssscssssssssssssscccsssssssssssss" /><path
           style="fill:#000000;fill-opacity:1"
           d="m -145.76275,151.26139 c -0.13088,-0.21177 -0.0945,-0.26143 0.10242,-0.13973 0.22836,0.14113 0.32131,-2.26954 0.36821,-9.55027 l 0.0627,-9.73905 0.0729,9.64071 c 0.0676,8.93573 -0.0418,10.70167 -0.60627,9.78834 z m -3.33003,-2.56186 c -0.3291,-0.41965 -0.31975,-0.42901 0.0999,-0.0999 0.44073,0.34564 0.58088,0.56292 0.36312,0.56292 -0.0549,0 -0.2633,-0.20836 -0.46302,-0.46302 z m -1.05833,-0.79375 c -0.32911,-0.41965 -0.31975,-0.42901 0.0999,-0.0999 0.44073,0.34564 0.58089,0.56292 0.36313,0.56292 -0.0549,0 -0.2633,-0.20836 -0.46302,-0.46302 z m -2.38125,-1.85209 c -0.32911,-0.41964 -0.31975,-0.429 0.0999,-0.0999 0.44073,0.34564 0.58089,0.56291 0.36313,0.56291 -0.0549,0 -0.2633,-0.20836 -0.46302,-0.46302 z m -2.38125,-1.85208 c -0.32911,-0.41965 -0.31975,-0.429 0.0999,-0.0999 0.25467,0.19972 0.46303,0.40808 0.46303,0.46302 0,0.21777 -0.21728,0.0776 -0.56292,-0.36312 z m 13.98869,-7.66145 1.38723,-0.10514 0.068,-18.04405 0.068,-18.04405 4.98711,-0.0721 4.98711,-0.0721 -0.0942,-1.184691 c -0.0518,-0.65158 -0.004,-1.184691 0.10612,-1.184691 0.11019,0 0.20034,0.595313 0.20034,1.322917 v 1.322915 h -5.02525 -5.02524 l -0.068,18.05781 -0.068,18.05782 -1.4552,0.0252 -1.45521,0.0252 z m -7.034,-2.19428 c 0,-0.3638 0.0601,-0.51263 0.13345,-0.33073 0.0734,0.1819 0.0734,0.47956 0,0.66146 -0.0734,0.1819 -0.13345,0.0331 -0.13345,-0.33073 z m 0.0634,-4.7625 c 0,-2.11005 0.0411,-2.97326 0.0913,-1.91823 0.0502,1.05503 0.0502,2.78143 0,3.83646 -0.0502,1.05502 -0.0913,0.19182 -0.0913,-1.91823 z m 5.81849,-0.39688 c 4.6e-4,-1.89177 0.0426,-2.63096 0.0936,-1.64264 0.0511,0.98832 0.0507,2.53613 -8.4e-4,3.43959 -0.0515,0.90345 -0.0933,0.0948 -0.0928,-1.79695 z m -3.25691,2.09462 c 0.0127,-0.30822 0.0754,-0.37092 0.15985,-0.15985 0.0764,0.191 0.067,0.4192 -0.0209,0.50712 -0.0879,0.0879 -0.15045,-0.0683 -0.13896,-0.34727 z m -2.53894,-16.38212 0.005,-10.58333 1.25847,-0.0244 1.25848,-0.0244 -1.18934,0.10491 -1.18934,0.1049 -0.0736,10.50281 -0.0736,10.50282 z m 5.75676,-3.24114 -0.0637,-13.824482 4.03489,0.05851 4.0349,0.05851 -3.90023,0.08084 -3.90022,0.08085 -0.071,13.685132 -0.071,13.68513 z m -13.22673,6.09434 c 0.40018,-0.0606 1.05502,-0.0606 1.45521,0 0.40018,0.0606 0.0728,0.11023 -0.72761,0.11023 -0.80036,0 -1.12778,-0.0496 -0.7276,-0.11023 z m -0.53461,-15.5999 -0.0607,-14.334209 2.3151,-0.104 c 1.27331,-0.0572 8.2087,-0.09886 15.41198,-0.09257 7.20328,0.0063 10.04395,0.04632 6.31259,0.08897 -5.60635,0.06407 -6.84084,0.145678 -7.11,0.470002 -0.33771,0.406913 -1.19026,0.561311 -0.94964,0.17198 0.075,-0.121267 -0.0376,-0.220486 -0.25006,-0.220486 -0.31959,0 -0.31049,0.08381 0.0526,0.48507 0.37035,0.409236 0.37742,0.485069 0.0452,0.485069 -0.21658,0 -0.39379,0.178594 -0.39379,0.396875 0,0.338921 0.85322,0.405948 5.84288,0.459009 3.45836,0.03678 0.87588,0.117761 -6.32795,0.198438 l -12.17083,0.136303 -0.0713,5.93226 c -0.0694,5.772239 -0.22951,6.889559 -0.92557,6.459369 -0.15152,-0.0936 -0.20037,-0.0487 -0.10855,0.0998 0.20754,0.33582 -0.71518,1.21012 -0.98859,0.93671 -0.10946,-0.10945 -0.17019,-0.0799 -0.13496,0.0656 0.0352,0.14552 -0.0137,0.44318 -0.10875,0.66146 -0.095,0.21828 -0.20569,3.01625 -0.24588,6.21771 -0.0402,3.20146 -0.10039,-0.62956 -0.13379,-8.51337 z m 1.17402,0.80056 c 0,-0.26049 -0.0892,-0.27459 -0.35278,-0.0558 -0.19403,0.16103 -0.35278,0.31789 -0.35278,0.34858 0,0.0307 0.15875,0.0558 0.35278,0.0558 0.19403,0 0.35278,-0.15686 0.35278,-0.34857 z m 1.05833,-1.05834 c 0,-0.26048 -0.0892,-0.27458 -0.35278,-0.0558 -0.19402,0.16102 -0.35277,0.31788 -0.35277,0.34857 0,0.0307 0.15875,0.0558 0.35277,0.0558 0.19403,0 0.35278,-0.15686 0.35278,-0.34858 z m 12.7,-12.35142 c 0,-0.194028 -0.15686,-0.352778 -0.34858,-0.352778 -0.26048,0 -0.27458,0.08916 -0.0558,0.352778 0.16102,0.194028 0.31788,0.352778 0.34857,0.352778 0.0307,0 0.0558,-0.15875 0.0558,-0.352778 z m 4.95705,22.73789 c -0.0779,-0.20297 -0.10392,-0.82805 -0.0578,-1.38906 l 0.0838,-1.02001 8.73125,-0.006 8.73125,-0.006 -8.66511,0.0754 -8.6651,0.0754 v 1.17025 c 0,1.122 0.0354,1.17464 0.85989,1.27696 l 0.8599,0.10671 -0.8682,0.0423 c -0.53054,0.0259 -0.92328,-0.10119 -1.00982,-0.32671 z m 18.62945,-2.7221 c 0.191,-0.0764 0.4192,-0.067 0.50712,0.0209 0.0879,0.0879 -0.0684,0.15045 -0.34726,0.13896 -0.30823,-0.0127 -0.37092,-0.0754 -0.15986,-0.15985 z m 8.1194,-1.40676 c 0.71667,-0.72761 1.36256,-1.32292 1.43532,-1.32292 0.0728,0 -0.45407,0.59531 -1.17073,1.32292 -0.71667,0.7276 -1.36256,1.32292 -1.43532,1.32292 -0.0728,0 0.45407,-0.59532 1.17073,-1.32292 z m -21.45718,-1.69197 c -0.0779,-0.20298 -0.10392,-0.82806 -0.0578,-1.38906 l 0.0838,-1.02001 2.97706,-0.0136 2.97705,-0.0136 -2.93584,0.0887 -2.93585,0.0887 0.0911,1.31418 c 0.0939,1.35488 0.0456,1.58348 -0.19944,0.9448 z m 5.40028,0.18831 c 0.191,-0.0764 0.4192,-0.067 0.50712,0.0209 0.0879,0.0879 -0.0684,0.15045 -0.34726,0.13896 -0.30823,-0.0127 -0.37092,-0.0754 -0.15986,-0.15985 z m 14.07253,-0.18374 c 0,-0.0549 0.20836,-0.2633 0.46302,-0.46302 0.41964,-0.3291 0.429,-0.31975 0.0999,0.0999 -0.34564,0.44073 -0.56291,0.58088 -0.56291,0.36312 z m 1.05833,-1.32291 c 0,-0.055 0.20836,-0.2633 0.46302,-0.46302 0.41965,-0.32911 0.42901,-0.31975 0.0999,0.0999 -0.34565,0.44073 -0.56292,0.58089 -0.56292,0.36313 z m -11.1125,-3.2074 c 0.49366,-0.50932 0.95709,-0.92604 1.02985,-0.92604 0.0728,0 -0.27161,0.41672 -0.76526,0.92604 -0.49366,0.50932 -0.95709,0.92604 -1.02985,0.92604 -0.0728,0 0.27161,-0.41672 0.76526,-0.92604 z m 13.77922,-2.403299 c 0.0127,-0.308224 0.0754,-0.370919 0.15986,-0.159852 0.0764,0.190996 0.067,0.419199 -0.0209,0.507118 -0.0879,0.08792 -0.15045,-0.06835 -0.13897,-0.347266 z m 2.97152,-2.094618 c 0.001,-0.873125 0.0509,-1.198414 0.10976,-0.722865 0.0589,0.475548 0.0577,1.189923 -0.003,1.5875 -0.0604,0.397576 -0.10855,0.0085 -0.10706,-0.864635 z m -28.32626,0.468718 c 0.5457,-0.05708 1.43867,-0.05708 1.98438,0 0.5457,0.05708 0.0992,0.103786 -0.99219,0.103786 -1.09141,0 -1.53789,-0.0467 -0.99219,-0.103786 z m 25.65002,-0.733301 c 0.005,-0.436563 0.0647,-0.583125 0.13177,-0.325694 0.0671,0.257431 0.0627,0.614619 -0.01,0.79375 -0.0725,0.179132 -0.12736,-0.03149 -0.12197,-0.468056 z m -12.20153,-1.344965 c 0.0127,-0.308225 0.0754,-0.37092 0.15986,-0.159853 0.0764,0.190996 0.067,0.419199 -0.0209,0.507118 -0.0879,0.08792 -0.15045,-0.06835 -0.13897,-0.347265 z m 14.55209,-1.5875 c 0.0127,-0.308225 0.0754,-0.37092 0.15985,-0.159853 0.0764,0.190996 0.067,0.419199 -0.0209,0.507118 -0.0879,0.08792 -0.15045,-0.06835 -0.13896,-0.347265 z m -15.92964,-1.367014 c -0.32911,-0.419644 -0.31975,-0.429003 0.0999,-0.0999 0.25467,0.199719 0.46303,0.408078 0.46303,0.463021 0,0.217761 -0.21728,0.0776 -0.56292,-0.363126 z m -1.32292,-1.322917 c -0.3291,-0.419644 -0.31975,-0.429002 0.0999,-0.09989 0.44073,0.345644 0.58088,0.562916 0.36312,0.562916 -0.0549,0 -0.2633,-0.20836 -0.46302,-0.463021 z m 3.3159,-0.396875 -0.50402,-0.595313 0.59531,0.504028 c 0.32742,0.277216 0.59531,0.545106 0.59531,0.595313 0,0.211734 -0.21293,0.05542 -0.6866,-0.504028 z m -4.34048,-0.198438 c -0.23847,-0.154109 -0.2711,-0.258097 -0.0818,-0.260531 0.17331,-0.0022 0.3887,0.115011 0.47863,0.260531 0.20302,0.328487 0.11143,0.328487 -0.39687,0 z m 16.9715,-0.46302 c -0.28871,-0.6747 -0.28218,-0.690261 0.0898,-0.214014 0.22065,0.282475 0.40118,0.609897 0.40118,0.727604 0,0.402142 -0.17948,0.214408 -0.491,-0.51359 z m -19.6804,-0.253276 c 0.32912,-0.06329 0.80537,-0.06088 1.05834,0.0053 0.25296,0.06622 -0.0163,0.118003 -0.5984,0.115066 -0.58208,-0.0029 -0.78905,-0.05712 -0.45994,-0.120406 z m 5.58557,-0.540474 c -0.32911,-0.419644 -0.31975,-0.429003 0.0999,-0.0999 0.25466,0.199719 0.46302,0.408078 0.46302,0.463021 0,0.217761 -0.21727,0.0776 -0.56291,-0.363126 z m 10.19507,-0.396875 -0.50403,-0.595313 0.59531,0.504028 c 0.32742,0.277215 0.59531,0.545106 0.59531,0.595313 0,0.211733 -0.21293,0.05542 -0.68659,-0.504028 z m -1.05834,-1.322917 -0.50403,-0.595313 0.59532,0.504028 c 0.32742,0.277216 0.59531,0.545106 0.59531,0.595313 0,0.211733 -0.21294,0.05542 -0.6866,-0.504028 z m -1.69465,-1.280412 c -0.56985,-0.46611 -0.58105,-0.501741 -0.0809,-0.257277 0.31931,0.15607 0.65376,0.402186 0.74322,0.546924 0.2388,0.386397 0.0784,0.31626 -0.66234,-0.289647 z m 3.55942,-0.571672 -1.04588,-1.124479 1.12448,1.045884 c 1.04575,0.972662 1.24606,1.203075 1.04588,1.203075 -0.0432,0 -0.54924,-0.506016 -1.12448,-1.12448 z m -5.14692,-0.330729 c -0.3638,-0.207968 -0.53539,-0.382342 -0.3813,-0.387499 0.15409,-0.0052 0.51128,0.165431 0.79375,0.379085 0.65325,0.494093 0.4446,0.49835 -0.41245,0.0084 z m 3.40583,-1.124479 c -0.3291,-0.419644 -0.31975,-0.429002 0.0999,-0.0999 0.25466,0.19972 0.46302,0.408079 0.46302,0.463021 0,0.217761 -0.21727,0.0776 -0.56292,-0.363126 z m -36.67719,-0.266986 -13.55989,-0.06855 v -1.320514 -1.320513 l 21.76198,0.06193 c 11.96909,0.03406 18.33304,0.09543 14.14211,0.136371 -4.40734,0.04306 -7.55804,0.174481 -7.47322,0.311723 0.16739,0.270836 -0.36255,0.233312 -0.82978,-0.05876 -0.17184,-0.107422 -0.3986,-0.05591 -0.5039,0.114467 -0.11213,0.181439 -0.0773,0.239242 0.084,0.13952 0.15152,-0.09364 0.41864,0.0022 0.5936,0.213048 0.26376,0.317812 0.21965,0.364343 -0.25815,0.272326 -0.46501,-0.08955 -0.51779,-0.04051 -0.27338,0.253994 0.24024,0.289466 0.20406,0.348414 -0.17488,0.284928 -0.26278,-0.04403 -0.45464,-0.193217 -0.42634,-0.331534 0.0283,-0.138317 -0.10069,-0.251486 -0.28663,-0.251486 -0.18594,0 -0.33808,0.152136 -0.33808,0.338079 0,0.185943 0.12898,0.314928 0.28663,0.286632 0.15765,-0.0283 0.2605,0.08647 0.22857,0.255042 -0.0416,0.219576 1.12135,0.32453 4.10104,0.370111 2.28751,0.03499 4.56752,0.04429 5.06669,0.02065 0.49917,-0.02363 0.83762,0.02699 0.75211,0.112499 -0.2105,0.210502 -6.72747,0.261754 -22.89251,0.180036 z m 28.31042,0.01846 c 0.25466,-0.06655 0.67138,-0.06655 0.92604,0 0.25466,0.06655 0.0463,0.121 -0.46302,0.121 -0.50932,0 -0.71768,-0.05445 -0.46302,-0.121 z m 6.81302,-0.611366 c -0.23846,-0.154109 -0.2711,-0.258097 -0.0818,-0.260532 0.17331,-0.0022 0.3887,0.115011 0.47864,0.260532 0.20301,0.328487 0.11142,0.328487 -0.39688,0 z m -4.54752,-1.76824 c 0.19099,-0.07643 0.4192,-0.06703 0.50711,0.02089 0.0879,0.08792 -0.0683,0.150453 -0.34726,0.138964 -0.30823,-0.0127 -0.37092,-0.07539 -0.15985,-0.159852 z"
           id="path3"
           sodipodi:nodetypes="csscsccsssssssssssssssssssccccccsssccccccccscssssssccsccsssssccccccccccccccccccssssccsssscsssssscsscsscsscsssssssssssssssssscccccccssccccsssssssssssccccccsssssssssssssssssssssssssssscccccsssscscccssssssssssssssssssssscssscssccssssscccccsssssscsssscssssssssscsssscssssssssccccssssssssssssssssssccsssscssccsssss" /><path
           style="fill:#000000;fill-opacity:1"
           d="m -150.75743,147.28009 -5.18773,-3.99911 0.0696,-8.88946 0.0696,-8.88946 1.25677,-0.0685 1.25677,-0.0685 v 8.31849 8.31848 l 2.40723,1.86043 c 1.32398,1.02324 2.5146,1.86043 2.64583,1.86043 0.13123,0 0.24593,-1.8157 0.25488,-4.03489 0.009,-2.2192 0.0713,-6.71381 0.1386,-9.98802 0.0673,-3.27422 0.11949,-10.7454 0.11602,-16.60261 l -0.006,-10.64948 h 1.19062 1.19063 v 21.44687 c 0,14.23053 -0.089,21.39184 -0.26458,21.28334 -0.14553,-0.0899 -0.26459,0.0291 -0.26459,0.26458 0,0.23546 -0.11906,0.35452 -0.26458,0.26459 -0.14552,-0.0899 -0.26458,0.0291 -0.26458,0.26458 0,0.27207 0.12054,0.35568 0.33072,0.22941 0.22473,-0.13501 0.21435,-0.0552 -0.0324,0.24897 -0.38463,0.47416 -0.69908,0.61745 -0.44193,0.20136 0.0837,-0.13546 0.0312,-0.32108 -0.11667,-0.41249 -0.1479,-0.0914 -0.2689,0.0265 -0.2689,0.26192 0,0.23546 -0.11906,0.35452 -0.26458,0.26458 -0.14553,-0.0899 -0.26459,0.0291 -0.26459,0.26458 0,0.23546 0.12201,0.3527 0.27114,0.26054 0.14913,-0.0922 0.23842,-0.0472 0.19844,0.0999 -0.04,0.14714 0.34402,0.6274 0.85334,1.06725 0.50932,0.43985 0.84794,0.80457 0.75248,0.81048 -0.0955,0.006 -2.50804,-1.78885 -5.3613,-3.98836 z m 8.79828,-29.93365 c 0.0486,-10.51391 0.11494,-19.142824 0.14736,-19.175369 0.0324,-0.03254 2.79061,-0.07715 6.12929,-0.09912 l 6.07035,-0.03995 0.0811,1.085417 0.0811,1.085412 -4.97586,0.072 -4.97587,0.072 -0.068,18.05781 -0.068,18.05782 -1.25494,5e-5 -1.25493,5e-5 z m -13.76987,-6.08528 c 0.0423,-3.52898 0.15048,-6.59493 0.24044,-6.81321 0.09,-0.21828 0.13474,-0.51594 0.0995,-0.66146 -0.0352,-0.14552 0.0255,-0.17502 0.13496,-0.0656 0.25605,0.25605 1.20285,-0.59003 1.0098,-0.90238 -0.0801,-0.12968 -0.0297,-0.20307 0.11207,-0.16308 0.14179,0.04 0.2578,-0.0464 0.2578,-0.19188 0,-0.14552 -0.10716,-0.23482 -0.23813,-0.19844 -0.36738,0.10205 -0.28349,-0.0968 0.20954,-0.49677 0.25502,-0.20687 0.36702,-0.22868 0.26027,-0.0507 -0.10307,0.17185 -0.0664,0.38723 0.0815,0.47864 0.17212,0.10637 0.2689,2.92209 0.2689,7.82349 v 7.6573 l -1.25677,1.9e-4 -1.25677,1.9e-4 z m 20.75905,1.19031 c -0.82596,-0.0956 -0.85989,-0.14586 -0.85989,-1.27341 v -1.17386 l 8.26823,-0.002 c 4.54752,-8.4e-4 8.9826,-0.11761 9.85573,-0.25947 2.27141,-0.36906 5.09333,-1.84714 6.81665,-3.57046 4.50015,-4.50015 4.97838,-11.650518 1.11948,-16.738047 -1.9148,-2.524455 -4.62441,-4.246404 -7.53926,-4.791179 -1.26524,-0.236468 -7.56558,-0.488093 -15.13549,-0.604486 -1.53309,-0.02357 -2.28506,-0.134057 -2.24896,-0.330432 0.0298,-0.162261 -0.0747,-0.271869 -0.23239,-0.243573 -0.15765,0.0283 -0.28663,-0.100689 -0.28663,-0.286632 0,-0.185943 0.15214,-0.338079 0.33808,-0.338079 0.18594,0 0.31493,0.113169 0.28663,0.251486 -0.0283,0.138317 0.16356,0.287507 0.42634,0.331534 0.37894,0.06349 0.41512,0.0045 0.17488,-0.284928 -0.24441,-0.294506 -0.19163,-0.343547 0.27338,-0.253994 0.4778,0.09202 0.52191,0.04549 0.25815,-0.272326 -0.17496,-0.210819 -0.44208,-0.30669 -0.5936,-0.213048 -0.16395,0.101328 -0.19583,0.04139 -0.0787,-0.148052 0.14394,-0.232907 0.29057,-0.240428 0.54649,-0.02803 0.24191,0.20077 0.40263,0.204731 0.52122,0.01285 0.11313,-0.183036 2.74134,-0.277431 7.72443,-0.277431 6.00576,0 7.88129,0.08508 9.15575,0.415323 5.46245,1.415464 9.73969,5.692697 11.15515,11.155152 0.51874,2.001893 0.53066,5.567297 0.025,7.467532 -1.10099,4.13715 -4.20416,7.98304 -7.91843,9.81362 -3.38944,1.6705 -4.70445,1.84454 -13.51934,1.7892 -4.22011,-0.0265 -8.05987,-0.093 -8.53282,-0.14772 z m 4.60816,-5.79866 c -0.097,-0.097 -0.17638,-0.69232 -0.17638,-1.32291 v -1.14653 h 2.73099 c 3.23001,0 4.65955,-0.40711 6.26999,-1.78559 2.30782,-1.97541 3.039,-5.3787 1.7502,-8.146368 -0.7274,-1.562079 -2.61402,-3.324971 -4.05022,-3.784589 -0.64711,-0.207091 -3.83674,-0.383124 -8.83968,-0.487853 -6.30611,-0.132009 -7.82726,-0.233134 -7.82726,-0.520352 0,-0.196075 0.17721,-0.3565 0.39379,-0.3565 0.33222,0 0.32515,-0.07583 -0.0452,-0.485069 -0.36313,-0.401256 -0.37223,-0.48507 -0.0526,-0.48507 0.21248,0 0.32501,0.09922 0.25006,0.220486 -0.24217,0.391838 0.61304,0.233599 0.9533,-0.176389 0.27774,-0.334658 1.4377,-0.396875 7.39931,-0.396875 6.35084,0 7.2244,0.05315 8.58863,0.52251 6.67134,2.295276 8.6351,10.610418 3.67373,15.555619 -1.4781,1.47328 -3.053,2.28026 -5.2387,2.68431 -1.71337,0.31673 -5.50149,0.38959 -5.77992,0.11117 z m -25.04722,-3.40718 c 0,-0.0307 0.15875,-0.18755 0.35278,-0.34858 0.26362,-0.21879 0.35278,-0.20469 0.35278,0.0558 0,0.19171 -0.15875,0.34857 -0.35278,0.34857 -0.19403,0 -0.35278,-0.0251 -0.35278,-0.0558 z m 14.05952,-13.70254 c -0.21879,-0.263621 -0.20469,-0.352778 0.0558,-0.352778 0.19172,0 0.34858,0.15875 0.34858,0.352778 0,0.194028 -0.0251,0.352778 -0.0558,0.352778 -0.0307,0 -0.18755,-0.15875 -0.34857,-0.352778 z"
           id="path2"
           sodipodi:nodetypes="ccccccccsscsccccssssssssssssssscccssscccccccccssssccssssssscccscsccssssssssssscssscssssscssccsscsssssssssssssssssssssssssssss" /><path
           style="fill:#000000;fill-opacity:1"
           d="m -146.47934,150.18631 c -0.5457,-0.44579 -0.99219,-0.98461 -0.99219,-1.19736 0,-0.21276 0.11906,-0.31325 0.26459,-0.22331 0.14552,0.0899 0.26458,-0.0291 0.26458,-0.26458 0,-0.23546 0.121,-0.35332 0.2689,-0.26192 0.14789,0.0914 0.2004,0.27703 0.11667,0.41249 -0.25715,0.41609 0.0573,0.2728 0.44193,-0.20136 0.24674,-0.30418 0.25712,-0.38398 0.0324,-0.24897 -0.21018,0.12627 -0.33072,0.0427 -0.33072,-0.22941 0,-0.23546 0.11906,-0.35452 0.26458,-0.26458 0.14552,0.0899 0.26458,-0.0291 0.26458,-0.26459 0,-0.23545 0.10089,-0.36575 0.22421,-0.28953 0.20097,0.12421 0.44702,3.87404 0.25279,3.85254 -0.0441,-0.005 -0.52661,-0.37362 -1.07231,-0.81942 z"
           id="path1" /></g><text
         xml:space="preserve"
         transform="matrix(1.1732229,0,0,0.91142102,1049.1571,-552.47448)"
         id="text4"
         style="font-size:17.3333px;font-family:'Times New Roman';-inkscape-font-specification:'Times New Roman, ';white-space:pre;shape-inside:url(#rect4);fill:#000000;stroke-width:4.19528"><tspan
           x="-870.25781"
           y="791.25315"
           id="tspan2"><tspan
             style="font-family:PUPPYLIKE;-inkscape-font-specification:PUPPYLIKE"
             id="tspan1">PAGE CREATOR</tspan></tspan></text><text
         xml:space="preserve"
         style="font-style:normal;font-variant:normal;font-weight:normal;font-stretch:normal;font-size:11.1914px;font-family:PUPPYLIKE;-inkscape-font-specification:PUPPYLIKE;letter-spacing:0px;fill:#000000;stroke-width:2.70871"
         x="30.273087"
         y="248.30284"
         id="text5"
         transform="scale(1.3778845,0.72575023)"><tspan
           sodipodi:role="line"
           id="tspan5"
           x="30.273087"
           y="248.30284"
           style="letter-spacing:0px;stroke-width:2.70871">WEB MADE EASY</tspan></text></g></g></svg>
